<svg width="249" height="249" viewBox="0 0 249 249" fill="none" xmlns="http://www.w3.org/2000/svg">
<path d="M92.7741 86.4164C99.5311 86.1748 101.6 87.9385 106.998 91.6146C113.975 96.3668 119.216 100.619 119.783 109.643C139.837 121.999 168.958 99.1938 190.782 106.915C201.83 110.823 206.54 118.001 210.482 128.717C212.32 133.711 214.54 138.827 218.896 142.081C221.701 144.138 225.686 144.585 228.766 146.022C230.487 151.3 211.046 154.458 203.665 135.011C202.836 138.197 202.612 139.023 202.789 142.263C204.372 144.272 205.288 145.536 204.459 148.355C201.719 157.671 200.935 170.596 187.011 165.26C183.224 161.15 187.579 158.563 191.046 156.97C191.231 156.626 191.401 156.274 191.557 155.915C194.329 149.381 192.621 148.818 186.981 146.733C186.397 149.364 185.331 152.847 184.58 155.482C183.779 157.964 182.808 160.459 180.408 161.805C178.572 162.875 174.791 163.511 172.718 162.688C165.517 159.828 171.087 155.648 174.758 153.867C175.771 151.222 176.966 146.913 175.128 144.435C174.713 143.876 172.898 141.771 172.245 141.704C170.136 141.486 167.729 142.405 165.724 142.982C153.577 147.063 138.395 154.612 125.301 152.201C123.651 160.68 118.264 168.449 108.958 166.778C106.204 166.284 105.616 165.933 103.947 163.852C99.9893 164.614 98.9939 164.593 95.085 163.789C92.5134 161.639 92.1389 158.979 94.9334 157.503C100.557 154.531 101.239 154.214 100.981 147.516C100.879 145.7 100.059 144.408 98.569 143.352C93.8561 140.012 89.823 132.812 84.1171 131.413C78.2664 129.978 73.8654 134.938 67.9682 136.059C62.6797 137.065 57.0415 136.862 52.681 133.317L51.6948 130.956C52.9065 124.494 64.6488 116.832 68.1341 110.981C70.751 106.587 69.2584 101.656 72.5385 97.6465C77.1939 91.9551 77.9992 89.352 85.6419 87.9446C87.7064 87.5645 90.3781 86.7918 92.7741 86.4164ZM81.6212 128.85C92.0892 131.012 91.8799 135.721 100.089 141.998C104.552 145.41 107.498 146.591 112.617 148.362C112.228 146.654 110.611 141.782 111.578 140.509L111.872 140.599C115.392 144.359 115.12 153.909 112.337 158.235C111.418 158.667 109.966 159.148 108.977 159.509C108.034 160.969 105.648 162.159 106.823 163.77C109.483 164.953 108.518 161.61 111.199 160.947C111.978 161.125 111.69 160.974 112.283 161.547C112.15 162.431 110.326 164.181 109.615 164.932C120.764 165.056 121.911 156.455 124.595 147.729C125.014 146.367 124.838 143.488 126.058 142.843L126.464 143.138C127.472 145.045 126.417 148.278 125.885 150.404C128.937 150.825 131.962 150.61 135.006 150.242C140.122 149.575 145.152 148.357 150.007 146.61C158.714 143.568 168.168 138.56 177.486 139.343C177.181 138.656 176.892 137.963 176.617 137.264C175.956 135.554 174.923 131.555 175.665 129.87C176.208 129.433 175.958 129.505 176.587 129.526C177.546 130.706 177.327 137.21 181.214 140.809C188.65 147.693 199.493 144.773 192.765 157.982C191.329 158.879 188.397 160.796 187.723 162.283C187.79 163.069 187.823 163.157 188.251 163.821L188.73 163.922C190.273 163.19 190.687 160.994 192.472 160.922L192.969 161.424C192.864 162.98 191.902 162.514 191.747 163.829C192.84 164.347 195.355 163.893 196.276 163.224C200.321 160.288 201.723 150.518 203.006 145.908C202.592 145.312 201.189 143.323 201.04 142.713C199.976 138.357 202.438 133.5 202.681 129.133C202.763 127.659 202.033 125.555 201.936 123.786C202.395 123.009 202.168 123.117 202.837 122.904C204.831 123.851 204.622 130.453 204.261 132.404C207.937 140.289 213.755 149.676 224.096 147.832C224.746 147.716 225.209 147.622 225.559 147.08C225.166 146.67 222.675 146.208 221.808 145.874C207.652 140.423 209.449 120.884 198.119 112.914C173.756 95.7736 145.225 125.046 119.506 111.901C118.815 119.879 113.898 131.522 104.959 133.347C102.497 133.849 99.1938 133.325 97.1242 131.801C89.0951 125.886 92.6824 115.503 93.2131 107.272C93.3225 105.524 92.5313 101.333 92.2076 99.4463L92.3667 99.2271C97.4465 99.7892 94.0285 115.742 94.0268 119.061C93.8459 122.009 94.3993 127.008 96.7885 128.996C108.492 138.735 117.978 118.845 117.719 109.361C117.391 101.489 112.231 97.5422 106.386 93.4984C100.452 89.3932 97.3512 86.9073 89.7179 89.1737C86.8737 90.0185 83.2876 89.9317 80.5193 91.6282C78.5458 92.8375 78.0171 94.3822 76.5389 96.0617C74.8103 98.058 73.0362 100.002 72.3241 102.608C71.4466 105.503 71.9525 109.001 70.1473 111.574C65.9243 117.595 59.9289 122.594 54.8694 127.963C56.9362 127.588 61.5294 126.74 62.7025 128.936C63.1197 131.342 60.2209 133.052 59.5214 134.48C60.3814 134.535 62.0867 134.794 62.7825 134.784C70.653 134.676 76.8954 130.475 82.4014 125.602L82.8959 126.62L83.0366 126.603C83.3985 126.563 83.5677 126.499 83.8748 126.68C83.3475 127.498 82.3842 128.213 81.6212 128.85ZM111.958 151.669C111.647 152.736 110.725 155.342 110.902 156.202C111.008 156.24 111.156 156.314 111.241 156.298C111.746 154.98 112.81 152.967 112.321 151.795L111.958 151.669ZM175.966 155.449C174.367 156.2 170.99 157.706 171.487 160.023C172.936 159.924 174.421 157.404 176.019 157.815L176.291 158.307C176.002 159.162 175.185 159.747 174.662 160.69C176.82 161.976 180.634 159.735 181.509 157.635C182.977 154.114 184.139 149.931 185.075 146.226C183.186 144.884 180.87 143.224 179.132 141.737C178.166 141.585 176.057 141.183 175.179 141.113C177.323 144.782 178.883 146.022 177.668 151.12C177.375 152.352 176.619 154.397 175.966 155.449ZM102.763 146.353C103.093 150.368 103.057 151.844 101.729 155.646C100.212 157.097 95.5468 158.702 95.0547 160.529C95.3244 161.353 95.7323 161.832 96.6454 161.973C97.5203 161.531 97.7662 158.461 100.128 159.13C100.743 160.192 99.6374 161.029 98.9073 161.893C99.4974 163.192 102.597 162.199 103.856 161.933C105.204 159.78 105.528 159.101 107.792 157.82C108.978 155.132 109.756 152.5 110.528 149.671C107.094 148.655 105.463 147.409 102.763 146.353Z" fill="black" fill-opacity="0.988235"/>
<path d="M76.1216 109.784C76.9586 110.331 77.2833 111.76 77.7017 112.405C78.0483 112.94 80.3776 111.49 81.3087 111.853C81.4248 112.636 81.3666 112.454 81.0494 113.271C78.2396 116.292 74.1464 113.757 76.1216 109.784Z" fill="black"/>
<path d="M82.4014 125.602C82.8738 125.092 83.0155 124.869 83.7096 124.694C84.4433 124.913 84.2017 124.734 84.6215 125.362C84.4668 126.283 84.589 125.967 83.8748 126.68C83.5677 126.5 83.3984 126.563 83.0366 126.603L82.8959 126.62L82.4014 125.602Z" fill="black" fill-opacity="0.960784"/>
<path d="M111.958 151.669L112.321 151.794C112.81 152.967 111.746 154.98 111.241 156.297C111.156 156.313 111.008 156.239 110.902 156.202C110.725 155.342 111.647 152.736 111.958 151.669Z" fill="black" fill-opacity="0.0431373"/>
<path d="M43.1534 135.199C47.6192 134.782 57.2267 135.35 60.9213 138.402C61.9423 139.245 61.7362 144.896 61.4655 146.482C60.6528 151.248 60.6569 157.917 57.1617 161.647C53.5715 164.505 45.734 164.603 41.3992 164.105C37.4117 163.744 33.95 163.011 32.7846 158.741C30.1647 158.306 27.8626 157.882 25.4314 155.971C20.8304 152.354 20.3694 144.106 25.9994 141.204C26.535 140.957 29.3809 140.586 29.6532 140.215C32.7266 136.022 37.4223 135.444 43.1534 135.199ZM47.5974 162.545C49.5777 162.344 55.3796 161.642 56.3563 159.869C59.1617 154.777 59.5917 146.425 59.8422 140.712C59.9931 137.272 47.4068 136.924 45.1558 137.143C42.8461 137.194 33.8037 137.618 32.5088 139.55C31.0754 141.689 32.9219 150.132 33.2769 152.882C33.5059 154.657 34.4076 159.451 35.5832 160.494C37.9777 162.619 44.701 162.695 47.5974 162.545ZM32.0708 156.933C32.0223 155.746 32.1989 155.728 31.6556 154.839C29.0697 153.334 26.8039 153.08 25.9184 149.797C25.811 149.394 25.7123 148.988 25.6221 148.58C27.461 143.477 27.3108 146.335 30.0049 144.296C30.5649 143.109 30.043 142.506 28.9188 142.138C24.794 143.063 22.8375 145.829 23.8637 150.112C24.4222 152.414 25.8901 154.392 27.9317 155.593C29.2043 156.357 30.6192 156.709 32.0708 156.933ZM30.9823 152.69L31.3675 152.378C31.3211 150.996 30.9585 147.657 29.9933 146.604C29.832 146.428 28.9094 146.379 28.6125 146.38C27.3307 148.74 27.2444 150.85 29.9144 152.206C30.2632 152.383 30.6195 152.544 30.9823 152.69Z" fill="black"/>
<path d="M41.9138 139.292C44.1087 139.066 57.0671 139.201 57.9565 141.169C56.9279 143.081 50.9375 143.543 48.9311 143.64C46.0643 143.931 34.9958 144.137 33.4333 141.319L33.6184 140.893C34.3201 140.548 40.5542 139.541 41.9138 139.292Z" fill="black"/>
<path d="M43.4269 113.474C44.722 113.338 46.1161 113.947 46.9315 114.908C48.776 117.083 48.677 121.172 47.7867 123.713C47.1103 125.643 46.3921 126.768 46.3991 128.742C47.0227 129.913 47.2189 130.328 47.5975 131.594C47.2347 131.758 46.443 131.887 46.1227 131.619C42.5809 128.654 47.0986 122.24 46.6392 118.592C46.4006 116.698 43.9566 115.344 43.4269 113.474Z" fill="black" fill-opacity="0.984314"/>
<path d="M37.9084 119.663C39.2144 119.836 40.041 120.763 40.9573 121.641C42.2951 125.713 40.7579 125.781 40.8137 129.75C40.8285 130.788 41.9383 130.659 41.5214 132.674C37.2198 132.193 39.2853 126.245 39.9777 123.805C38.9833 122.087 37.8487 121.635 37.9084 119.663Z" fill="black" fill-opacity="0.984314"/>
</svg>
