<svg width="249" height="249" viewBox="0 0 249 249" fill="none" xmlns="http://www.w3.org/2000/svg">
<path d="M144.441 85.479C169.221 84.7284 196.155 102.438 199.452 128.16C200.669 138.008 197.961 147.939 191.912 155.806C180.087 170.972 160.002 169.87 142.964 168.285C136.235 167.659 128.285 167.068 122.759 162.755C115.235 165.689 106.993 166.25 99.1406 164.362L96.385 163.631C91.7099 165.816 87.4153 167.182 82.3895 164.273C80.3347 163.085 80.4043 160.241 79.9389 158.218C77.7445 158.629 74.8059 160.4 72.6479 161.601C66.399 165.08 50.6425 166.687 46.6566 159.27C42.7737 150.002 51.6611 142.177 54.6959 133.723C56.7228 128.076 56.74 120.08 59.9189 115.426C65.1644 107.748 69.0998 102.476 78.9421 101.684C79.8455 101.612 83.3162 99.7614 84.4268 99.4643C90.4448 97.08 95.1783 97.0814 101.404 99.0733C103.23 98.5948 109.859 95.0972 111.954 94.1203C123.067 88.9376 132.096 86.137 144.441 85.479ZM104.686 100.451C107.57 102.329 111.373 103.524 114.5 105.051C122.826 109.118 127.839 117.355 129.661 126.25C131.228 134.267 131.12 143.802 126.702 150.941C125.147 153.452 122 156.201 119.108 156.655C115.013 157.297 111.651 156.03 107.446 157.111C103.506 158.123 101.674 159.2 98.7181 161.932C106.904 162.53 114.013 163.565 122.053 160.169C124.533 152.106 131.659 152.515 138.633 152.95C138.023 151.026 136.625 149.178 135.964 147.267C134.811 143.932 134.676 140.25 134.82 136.768C135.206 127.452 142.381 119.497 151.112 116.839C154.329 115.86 157.523 115.317 160.641 116.859L160.814 117.236C159.645 118.642 154.152 118.598 152.329 119.236C136.338 124.834 133.075 140.992 142.982 153.555C143.336 154.195 143.589 154.504 143.467 155.237C141.774 157.024 131.969 154.402 129.206 156.09C127.456 157.159 125.143 159.598 125.38 161.619C125.774 162.161 125.545 162.003 126.297 162.161C127.827 161.806 127.823 161.431 128.453 160.013C129.302 159.522 130.094 158.972 131.067 158.885L131.592 159.084C131.77 160.693 130.014 161.934 128.916 162.935C129.695 162.985 131.763 163.148 132.427 162.921C144.828 158.67 158.174 160.95 170.261 155.745C172.287 154.873 176.177 151.864 178.105 152.695C179.277 155.354 170.197 158.726 168.411 159.354C165.499 160.388 162.498 161.154 159.446 161.642C156.28 162.143 138.339 163.241 137.262 164.566C138.415 165.409 141.852 165.366 143.333 165.545C162.265 167.823 184.869 167.554 193.833 147.169C201.688 129.306 193.05 109.254 177.617 98.5667C166.874 91.1066 156.386 88.1304 143.416 88.3894C132.478 89.1903 124.821 91.2531 114.748 95.7775C111.673 97.1585 107.655 99.3503 104.686 100.451ZM99.8617 143.762C95.6006 148.129 90.3691 151.284 85.8539 155.314C85.1626 155.931 85.29 157.055 84.5709 157.716C83.8983 158.567 82.9907 159.569 82.819 160.614C83.1559 161.804 83.5864 161.958 84.6713 162.464C85.9601 161.723 86.6734 157.705 89.1249 158.18C89.9752 159.165 89.3459 159.627 88.6833 160.69C88.1914 161.582 87.8654 161.824 87.8749 162.706C88.6673 163.206 90.1588 163.114 91.0383 162.918C94.7665 162.089 97.4945 158.925 100.544 156.99C102.29 155.882 105.736 154.728 107.786 153.996C104.08 151.735 102.725 149.291 100.733 145.503C100.387 144.845 100.342 144.175 99.8617 143.762ZM48.0723 154.265C56.0844 148.582 65.3303 152.371 56.2816 161.723C65.7351 161.658 70.6942 161.078 78.2194 153.989C80.2697 152.058 81.9522 148.411 83.9788 148.013L84.5342 148.167C85.0882 149.979 82.4006 153.089 81.3318 154.389C84.9303 152.551 87.3515 150.535 90.5547 148.107C93.6489 145.682 96.0549 143.607 98.9667 140.945C97.6323 134.981 97.145 129.328 96.4187 123.284C96.1393 120.958 94.0767 117.81 94.6729 116.129C96.8921 115.484 98.6124 119.911 98.8957 121.468C100.537 130.482 100.388 147.305 110.018 152.367C127.395 161.501 129.716 135.257 126.309 124.899C122.244 112.544 117.777 108.58 105.836 104.203C98.462 101.41 99.176 99.8604 90.2144 100.447C86.5788 101.271 83.8187 102.71 80.3592 103.946C77.5543 104.948 72.7148 105.105 70.2642 107.068C67.2422 109.49 64.6432 114.003 62.1369 117.023C60.0196 119.86 59.3485 128.237 58.1989 132.575L58.315 132.85C59.876 133.021 60.5442 133.045 62.0062 133.691C62.8587 133.204 63.9884 132.416 64.9209 132.421L65.5188 132.686C66.2374 135.349 62.0915 135.839 60.3053 135.777L57.7885 133.461C55.0449 141.94 50.8564 145.22 48.0723 154.265Z" fill="black"/>
<path d="M83.3526 134.578C84.6029 134.118 87.4944 132.273 88.4861 133.226C88.41 134.103 88.2829 134.025 87.7238 134.856C87.3118 135.219 86.8488 135.604 86.3901 135.903C84.0703 137.414 77.9601 136.763 79.0741 132.854C80.5856 133.162 81.9566 133.909 83.3526 134.578Z" fill="black" fill-opacity="0.988235"/>
</svg>
