<svg width="249" height="249" viewBox="0 0 249 249" fill="none" xmlns="http://www.w3.org/2000/svg">
<path d="M145.642 45.7017C146.271 46.0157 146.783 46.4082 146.807 47.1355C147.019 53.6718 146.904 60.4606 146.898 66.9889C146.799 81.8927 146.826 96.7971 146.977 111.7C149.284 113.843 150.111 114.512 150.891 117.553C150.09 120.767 148.964 121.928 146.96 124.489C146.954 126.088 146.874 127.702 146.811 129.301C148.218 129.619 149.789 130.099 150.985 130.955C154.32 133.341 155.332 138.797 152.834 142.126C151.235 144.257 149.296 144.302 146.826 144.593C146.973 149.388 146.904 154.402 146.905 159.214C148.252 160.093 149.507 161.136 150.368 162.508C151.524 164.317 151.887 166.521 151.373 168.606C150.675 171.476 149.163 172.496 146.907 173.903C146.906 176.778 147.361 193.103 146.268 194.248C143.945 194.248 144.566 188.111 144.59 186.448C142.058 186.038 138.98 184.531 136.754 183.31C127.072 177.999 119.567 167.514 118.87 156.352C118.487 150.21 119.572 147.621 117.806 141.221C117.714 140.605 117.013 138.916 116.739 138.287C114.213 132.491 110.766 129.185 106.097 125.209C109.932 141.091 92.686 148.635 84.0736 135.725C77.4869 125.851 79.3912 107.869 85.4655 98.1541C86.1031 97.1345 87.147 95.2466 87.5627 94.2263C89.6412 89.1277 90.8961 84.068 95.9321 80.9967C99.3172 78.8755 102.383 79.0606 106.154 78.4062C110.889 76.9685 115.278 73.7479 121.01 74.8461C125.868 75.5686 129.073 79.8692 132.783 82.0241C138.901 85.5782 140.547 85.5598 144.574 91.5783C144.84 76.9282 144.351 62.0267 144.772 47.3735C144.791 46.7273 145.227 46.169 145.642 45.7017ZM144.598 184.219C144.6 180.823 144.708 176.795 144.576 173.451C142.864 172.952 142.094 172.822 140.856 171.521L140.687 170.864C142.232 169.617 148.003 173.335 148.832 170.34C148.247 168.212 145.601 169.981 144.664 168.067C145.866 166.594 147.706 167.944 149.44 167.535L149.744 167.158C149.548 166.361 149.345 166.202 148.807 165.618C148.159 165.353 147.963 165.302 147.274 165.174C146.468 165.017 145.839 164.977 145.236 164.426L145.267 164.049C146.394 163.355 147.551 163.426 148.087 162.65C146.25 159.843 137.752 159.713 137.308 164.964C137.06 167.902 139.126 169.553 137.986 170.529C137.486 170.62 136.854 170.724 136.521 170.32C133.02 166.078 136.226 158.677 141.917 158.613C142.912 158.602 143.749 158.732 144.593 158.83L144.607 143.876C138.411 140.059 137.46 132.913 144.623 129.824L144.564 125.288C138.983 128.609 132.297 129.539 126.021 127.865C122.487 126.951 113.213 123.388 111.277 120.459C111.151 119.64 111.089 119.953 111.474 119.269C112.295 119.083 112.775 119.162 113.517 119.696C120.423 124.66 128.953 127.419 137.446 125.709C139.423 125.31 141.916 124.45 143.909 123.768C142.169 123.248 140.71 122.895 139.178 121.88L137.945 119.441C140.336 114.763 141.768 114.622 146.879 114.311C138.915 110.304 131.929 103.028 130.499 93.9544C130.232 92.2579 127.971 89.6962 128.288 87.6286L128.633 87.3943C131.287 88.0339 132.923 93.5942 133.495 95.9951C135.188 103.103 139.183 106.236 144.675 110.469C144.317 101.746 146.427 95.1566 139.294 88.5306C136.414 85.8559 134.164 85.6437 131.103 83.7413C128.833 82.33 126.345 79.1874 123.586 78.049C121.703 77.2721 119.999 77.0058 117.984 76.977C113.176 77.4281 111.776 79.0339 107.469 80.5112C104.874 81.4015 101.787 80.7525 98.8505 82.0719C93.1029 84.4628 91.8869 89.867 89.9129 95.1011C89.1339 97.167 87.1749 99.5776 86.1449 101.81C81.4846 111.91 79.5246 129.327 88.7856 137.543C96.27 144.184 105.958 136.755 104.103 127.565C102.684 118.328 95.739 111.225 96.1999 101.505C96.2658 100.112 96.1746 97.4178 97.8263 96.9805C99.4489 97.8434 98.5995 101.716 98.7402 103.648C99.191 109.841 102.19 114.909 104.653 120.452C105.759 122.31 108.099 124.077 109.709 125.415C113.803 128.819 116.762 132.69 118.989 137.488C121.709 143.351 120.805 148.852 121.109 154.942C121.746 165.854 127.89 175.692 137.417 181.052C139.912 182.478 141.938 183.237 144.598 184.219ZM145.996 131.765C138.462 132.604 141.97 143.364 148.471 142.329C149.483 142.168 150.458 141.85 151.207 141.129L151.27 140.616C150.65 139.972 150.694 140.173 149.555 140.066C148.337 139.68 148.305 139.872 147.559 139.048L147.673 138.672C148.958 138.087 151.052 138.488 152.35 137.984C152.566 137.2 152.58 137.525 152.291 136.758C150.918 135.422 148.65 135.649 147.789 134.782C148.827 133.728 150.517 134.03 151.96 133.677C149.983 132.517 148.428 131.46 145.996 131.765Z" fill="black" fill-opacity="0.988235"/>
<path d="M109.752 101.764C113.035 102.666 113.835 106.475 112.231 109.189C109.147 107.993 107.724 104.324 109.752 101.764Z" fill="black" fill-opacity="0.984314"/>
<path d="M124.043 94.0342C127.728 94.0902 128.517 98.2143 127.035 100.667C123.7 100.361 123.087 96.6346 124.043 94.0342Z" fill="black" fill-opacity="0.984314"/>
</svg>
