<svg width="93" height="20" viewBox="0 0 93 20" fill="none" xmlns="http://www.w3.org/2000/svg">
<path d="M86.3655 0.806928C86.73 0.598658 87.3288 0.503202 88.1619 0.520557C89.0123 0.520557 89.802 0.624692 90.5309 0.832963C91.6417 1.16272 92.3967 1.72679 92.7959 2.52516C93.1256 3.20203 93.0562 3.69667 92.5876 4.00908C92.2578 4.25206 91.7632 4.31281 91.1037 4.19132C90.5309 4.08718 89.9669 4.01776 89.4115 3.98305L88.5784 3.93098L88.6044 5.05043C88.6218 5.51904 88.7086 5.94425 88.8648 6.32608C89.021 6.69056 89.1945 7.02032 89.3854 7.31537C89.5937 7.59306 89.7933 7.89679 89.9842 8.22655C90.1925 8.55631 90.3661 8.99888 90.5049 9.55427C90.6437 10.1097 90.7132 10.7518 90.7132 11.4808C90.7305 12.4006 90.5917 13.0775 90.2966 13.5114C90.0189 13.9453 89.4462 14.3792 88.5784 14.8131C88.0577 15.0561 87.3201 15.2123 86.3655 15.2817C85.4283 15.3338 84.8903 15.2557 84.7514 15.0474C84.6647 14.8912 84.4737 14.8131 84.1787 14.8131C83.9184 14.8131 83.5278 14.5441 83.0072 14.006C82.5039 13.4507 82.2522 13.0341 82.2522 12.7564C82.2522 12.5134 82.3737 12.1576 82.6167 11.689C82.8249 11.2899 83.1113 11.0555 83.4758 10.9861C83.8403 10.9167 84.144 11.0382 84.387 11.3506C84.5952 11.5936 85.0118 11.7932 85.6366 11.9494C86.0358 12.0535 86.3308 12.0969 86.5217 12.0795C86.7126 12.0622 86.9296 11.9841 87.1726 11.8452C87.3288 11.7411 87.4589 11.6109 87.5631 11.4547C87.6846 11.2812 87.7453 11.1336 87.7453 11.0122C87.7453 10.7518 87.5891 10.2745 87.2767 9.5803C86.9643 8.88607 86.6085 8.20051 86.2093 7.52364C85.8796 7.00296 85.6713 6.63849 85.5845 6.43022C85.4977 6.22195 85.3155 5.70127 85.0378 4.86819C84.8816 4.38223 84.7948 4.00908 84.7775 3.74874C84.7601 3.48841 84.8035 3.18468 84.9076 2.83756C85.2548 1.81357 85.7407 1.13669 86.3655 0.806928Z" fill="#30302F"/>
<path d="M77.3916 0.963124C78.3462 0.650719 79.2227 0.624685 80.021 0.885022C80.8194 1.128 81.2186 1.54454 81.2186 2.13464C81.2186 2.62061 81.0103 3.01979 80.5938 3.33219C80.1772 3.62724 79.5698 3.81816 78.7714 3.90494C78.0078 3.97436 77.3135 4.09585 76.6887 4.26941C76.0639 4.44297 75.1874 4.76405 74.0593 5.23266C73.2957 5.54506 72.8357 5.77937 72.6795 5.93557C72.5233 6.09177 72.3845 6.45625 72.263 7.02899C72.1762 7.53231 72.1415 7.87075 72.1588 8.0443C72.1936 8.20051 72.3064 8.35671 72.4973 8.51291C72.8791 8.79061 73.4085 8.86871 74.0853 8.74722C74.7796 8.62573 75.3523 8.34803 75.8036 7.91414C76.2722 7.48024 76.628 7.24594 76.871 7.21123C77.1313 7.17651 77.4437 7.33272 77.8082 7.67983C78.5024 8.33935 78.5111 9.12904 77.8342 10.0489C77.6606 10.2919 77.4784 10.5088 77.2875 10.6997C77.0966 10.8733 76.871 11.0208 76.6106 11.1423C76.3503 11.2465 76.1333 11.3332 75.9598 11.4027C75.8036 11.4721 75.5519 11.5241 75.2048 11.5589C74.8577 11.5936 74.6147 11.6196 74.4758 11.637C74.3544 11.637 74.068 11.6456 73.6167 11.663C73.1828 11.663 72.9051 11.663 72.7837 11.663L71.6382 11.7151L71.7944 14.4486L72.8618 14.6569C73.3824 14.761 73.851 14.7697 74.2676 14.6829C74.6841 14.5788 74.9878 14.4573 75.1788 14.3184C75.387 14.1622 75.6474 14.0581 75.9598 14.006C76.2722 13.9366 76.5759 13.9974 76.871 14.1883C77.3049 14.4139 77.5739 14.7784 77.678 15.2817C77.7995 15.785 77.7995 16.2536 77.678 16.6875C77.5565 17.1214 77.4003 17.3991 77.2094 17.5206C77.1573 17.5379 76.4805 17.5813 75.1788 17.6508C73.8771 17.7202 72.5233 17.7549 71.1175 17.7549C69.7117 17.7375 68.9133 17.6421 68.7224 17.4685C68.5488 17.3123 68.4447 17.0346 68.41 16.6354C68.3753 16.2363 68.384 15.3424 68.436 13.954C68.4881 12.2184 68.6009 10.3787 68.7745 8.43481C68.948 6.4736 69.0955 5.25001 69.217 4.76405C69.3212 4.45165 69.5815 4.1566 69.998 3.8789C70.4146 3.60121 70.6662 3.38426 70.753 3.22806C70.8919 2.98508 71.1522 2.86359 71.534 2.86359C71.9159 2.86359 72.1502 2.79416 72.2369 2.65532C72.3237 2.53383 72.5841 2.39498 73.018 2.23878C73.4692 2.08257 74.1634 1.8743 75.1007 1.61397C76.0379 1.35363 76.8015 1.13668 77.3916 0.963124Z" fill="#30302F"/>
<path d="M63.0403 1.06712C64.0296 0.407596 64.8106 0.164614 65.3833 0.338172C65.9561 0.511732 66.2424 1.08447 66.2424 2.0564C66.2424 2.4903 66.199 2.8027 66.1123 2.99362C66.0428 3.16717 65.8606 3.35809 65.5656 3.56636C65.392 3.68785 65.2618 3.80066 65.175 3.9048C65.1056 3.99158 65.0362 4.08703 64.9668 4.19117C64.9147 4.2953 64.8626 4.48622 64.8106 4.76391C64.7759 5.0416 64.7411 5.3193 64.7064 5.59699C64.6891 5.87468 64.637 6.34329 64.5502 7.00281C64.4808 7.64498 64.4027 8.29582 64.3159 8.95535C64.1077 10.3959 64.0035 11.55 64.0035 12.4178L63.9775 13.7456H65.175C65.8693 13.7456 66.3466 13.8063 66.6069 13.9278C66.8672 14.0493 67.0755 14.3183 67.2317 14.7348C67.3706 15.1167 67.3792 15.5072 67.2577 15.9064C67.1536 16.3055 66.9627 16.5832 66.685 16.7394C65.5222 17.3642 63.5436 17.6767 60.7493 17.6767H57.9116L57.3128 16.8956C56.7054 16.0973 56.5579 15.4551 56.8703 14.9691C57.1827 14.4658 57.8943 14.2142 59.005 14.2142C59.6472 14.2142 60.0377 14.1795 60.1766 14.11C60.3328 14.0406 60.4543 13.841 60.541 13.5113C60.6452 13.1294 60.7927 12.1054 60.9836 10.4393C61.1919 8.75575 61.3047 7.54084 61.322 6.79454C61.3394 6.29122 61.2873 6.00485 61.1658 5.93543C61.027 5.88336 60.5324 5.97014 59.6819 6.19577C58.8315 6.42139 58.0418 6.50817 57.3128 6.4561C56.6013 6.40404 56.1066 6.23048 55.8289 5.93543C55.4471 5.51889 55.2215 5.11103 55.1521 4.71184C55.0826 4.2953 55.1781 3.93951 55.4384 3.64446C55.7161 3.33205 56.5752 3.07172 58.0158 2.86345C59.4737 2.65518 60.3588 2.45558 60.6712 2.26467C60.9142 2.10847 61.1919 1.98698 61.5043 1.9002C61.834 1.81342 62.346 1.53572 63.0403 1.06712Z" fill="#30302F"/>
<path d="M44.6176 0.546708C44.8432 0.303726 45.1122 0.156202 45.4246 0.104134C45.7544 0.0347112 46.5267 0 47.7416 0C48.8524 0 49.616 0.0347112 50.0326 0.104134C50.4665 0.156202 50.857 0.286371 51.2041 0.494641C51.7421 0.824402 52.2628 1.37111 52.7661 2.13477C53.2868 2.89842 53.6339 3.6534 53.8075 4.3997C53.981 5.146 54.0765 5.98776 54.0938 6.92498C54.1112 7.86219 54.0331 8.38287 53.8595 8.487C53.7033 8.57378 53.6252 8.80808 53.6252 9.18991C53.6252 9.93621 53.2608 10.8387 52.5318 11.8974C51.8029 12.9561 51.0132 13.7285 50.1628 14.2144C49.9718 14.3359 49.8677 14.4487 49.8503 14.5529C49.8503 14.6396 49.9198 14.8479 50.0586 15.1777C50.1975 15.4727 50.3363 15.6636 50.4752 15.7504C50.6314 15.8372 50.883 15.8806 51.2301 15.8806C51.6293 15.8806 51.8723 15.924 51.9591 16.0108C52.0459 16.0802 52.1066 16.3145 52.1413 16.7137C52.176 17.3211 52.0285 17.8678 51.6987 18.3538C51.369 18.8398 50.9264 19.1608 50.371 19.317C49.8677 19.4559 49.4598 19.4732 49.1474 19.3691C48.8524 19.2476 48.566 18.9612 48.2883 18.51C47.9412 17.9893 47.5854 17.3819 47.2209 16.6876C46.8738 15.976 46.7003 15.5508 46.7003 15.412C46.7003 15.2384 46.466 14.9173 45.9974 14.4487C45.7544 14.2231 45.5461 14.0756 45.3725 14.0062C45.2163 13.9367 45.0862 13.9628 44.982 14.0843C44.8779 14.2057 44.7911 14.414 44.7217 14.7091C44.6696 15.0041 44.6262 15.4207 44.5915 15.9587C44.5047 17.3124 44.1837 18.2149 43.6283 18.6662C43.0902 19.1001 42.4654 18.9612 41.7539 18.2497C41.4414 17.9373 41.2679 17.6509 41.2332 17.3905C41.1985 17.1302 41.2158 16.3839 41.2852 15.1516C41.3547 14.0929 41.4588 13.2425 41.5976 12.6003C41.7538 11.9408 41.884 11.4722 41.9882 11.1945C42.1096 10.8995 42.1704 10.6304 42.1704 10.3875C42.1704 10.1618 42.3179 9.62381 42.613 8.77337C42.9254 7.92294 43.1163 7.0725 43.1857 6.22207C43.2725 5.09394 43.4634 3.94845 43.7584 2.78561C44.0535 1.60541 44.3399 0.859113 44.6176 0.546708ZM50.2669 3.51456C49.347 2.85503 48.4792 3.01124 47.6635 3.98316C47.4726 4.22615 47.3251 4.41706 47.2209 4.55591C47.1168 4.69475 47.0213 4.87699 46.9346 5.10261C46.8651 5.32824 46.8131 5.5018 46.7784 5.62329C46.761 5.72742 46.7003 5.99644 46.5961 6.43034C46.5093 6.86423 46.4312 7.23738 46.3618 7.54979C46.3618 7.5845 46.3531 7.62789 46.3358 7.67996C46.249 8.0965 46.1883 8.39154 46.1536 8.5651C46.1188 8.72131 46.0841 8.91222 46.0494 9.13785C46.0321 9.34612 46.0234 9.47628 46.0234 9.52835C46.0407 9.58042 46.0841 9.6672 46.1536 9.78869C46.2403 9.89283 46.3098 9.96225 46.3618 9.99696C46.4312 10.0317 46.5527 10.1098 46.7263 10.2313C46.761 10.2313 46.787 10.2399 46.8044 10.2573C47.3771 10.6044 48.0453 10.778 48.809 10.778C49.5727 10.7606 50.1194 10.5697 50.4491 10.2052C50.7615 9.84076 51.0479 9.29405 51.3082 8.5651C51.5686 7.8188 51.6987 7.19399 51.6987 6.69067C51.6987 6.15264 51.5425 5.55387 51.2301 4.89434C50.9351 4.21747 50.614 3.75754 50.2669 3.51456Z" fill="#30302F"/>
<path d="M30.6986 0.546708C30.9242 0.303726 31.1933 0.156202 31.5057 0.104134C31.8354 0.0347112 32.6078 0 33.8227 0C34.9334 0 35.6971 0.0347112 36.1136 0.104134C36.5475 0.156202 36.938 0.286371 37.2852 0.494641C37.8232 0.824402 38.3439 1.37111 38.8472 2.13477C39.3679 2.89842 39.715 3.6534 39.8885 4.3997C40.0621 5.146 40.1575 5.98776 40.1749 6.92498C40.1923 7.86219 40.1142 8.38287 39.9406 8.487C39.7844 8.57378 39.7063 8.80808 39.7063 9.18991C39.7063 9.93621 39.3418 10.8387 38.6129 11.8974C37.8839 12.9561 37.0942 13.7285 36.2438 14.2144C36.0529 14.3359 35.9488 14.4487 35.9314 14.5529C35.9314 14.6396 36.0008 14.8479 36.1397 15.1777C36.2785 15.4727 36.4174 15.6636 36.5562 15.7504C36.7124 15.8372 36.9641 15.8806 37.3112 15.8806C37.7104 15.8806 37.9534 15.924 38.0401 16.0108C38.1269 16.0802 38.1877 16.3145 38.2224 16.7137C38.2571 17.3211 38.1096 17.8678 37.7798 18.3538C37.45 18.8398 37.0075 19.1608 36.4521 19.317C35.9488 19.4559 35.5409 19.4732 35.2285 19.3691C34.9334 19.2476 34.6471 18.9612 34.3694 18.51C34.0223 17.9893 33.6665 17.3819 33.302 16.6876C32.9549 15.976 32.7813 15.5508 32.7813 15.412C32.7813 15.2384 32.547 14.9173 32.0784 14.4487C31.8354 14.2231 31.6272 14.0756 31.4536 14.0062C31.2974 13.9367 31.1672 13.9628 31.0631 14.0843C30.959 14.2057 30.8722 14.414 30.8028 14.7091C30.7507 15.0041 30.7073 15.4207 30.6726 15.9587C30.5858 17.3124 30.2647 18.2149 29.7093 18.6662C29.1713 19.1001 28.5465 18.9612 27.8349 18.2497C27.5225 17.9373 27.3489 17.6509 27.3142 17.3905C27.2795 17.1302 27.2969 16.3839 27.3663 15.1516C27.4357 14.0929 27.5399 13.2425 27.6787 12.6003C27.8349 11.9408 27.9651 11.4722 28.0692 11.1945C28.1907 10.8995 28.2514 10.6304 28.2514 10.3875C28.2514 10.1618 28.399 9.62381 28.694 8.77337C29.0064 7.92294 29.1973 7.0725 29.2668 6.22207C29.3535 5.09394 29.5445 3.94845 29.8395 2.78561C30.1346 1.60541 30.4209 0.859113 30.6986 0.546708ZM36.3479 3.51456C35.4281 2.85503 34.5603 3.01124 33.7446 3.98316C33.5537 4.22615 33.4061 4.41706 33.302 4.55591C33.1979 4.69475 33.1024 4.87699 33.0156 5.10261C32.9462 5.32824 32.8941 5.5018 32.8594 5.62329C32.8421 5.72742 32.7813 5.99644 32.6772 6.43034C32.5904 6.86423 32.5123 7.23738 32.4429 7.54979C32.4429 7.5845 32.4342 7.62789 32.4168 7.67996C32.3301 8.0965 32.2693 8.39154 32.2346 8.5651C32.1999 8.72131 32.1652 8.91222 32.1305 9.13785C32.1131 9.34612 32.1044 9.47628 32.1044 9.52835C32.1218 9.58042 32.1652 9.6672 32.2346 9.78869C32.3214 9.89283 32.3908 9.96225 32.4429 9.99696C32.5123 10.0317 32.6338 10.1098 32.8074 10.2313C32.8421 10.2313 32.8681 10.2399 32.8855 10.2573C33.4582 10.6044 34.1264 10.778 34.8901 10.778C35.6537 10.7606 36.2004 10.5697 36.5302 10.2052C36.8426 9.84076 37.129 9.29405 37.3893 8.5651C37.6496 7.8188 37.7798 7.19399 37.7798 6.69067C37.7798 6.15264 37.6236 5.55387 37.3112 4.89434C37.0161 4.21747 36.6951 3.75754 36.3479 3.51456Z" fill="#30302F"/>
<path d="M20.137 2.21274C20.6229 1.70942 21.0915 1.45776 21.5428 1.45776C22.0114 1.45776 22.5321 1.70942 23.1048 2.21274C23.4693 2.55986 23.7036 2.84623 23.8077 3.07186C23.9119 3.28013 23.9639 3.65328 23.9639 4.19131C23.9813 4.97232 24.0854 5.52771 24.2763 5.85747C24.4672 6.18723 24.7623 7.298 25.1615 9.18979C25.578 11.0816 25.9251 12.982 26.2028 14.8912C26.2896 15.4813 26.2028 15.9325 25.9425 16.2449C25.6648 16.54 25.3871 16.6875 25.1094 16.6875C24.8491 16.6875 24.4759 16.54 23.99 16.2449C23.6775 16.054 23.4606 15.8805 23.3391 15.7243C23.235 15.5507 23.1829 15.3164 23.1829 15.0213C23.1829 14.7089 23.1656 14.4746 23.1308 14.3184C23.0961 14.1622 23.0354 14.0234 22.9486 13.9019C22.8792 13.7631 22.7317 13.6763 22.506 13.6416C22.2804 13.5895 22.0287 13.5548 21.751 13.5374C21.4734 13.5201 21.0655 13.5114 20.5275 13.5114H18.2886L17.6377 14.4746C17.2212 15.0994 16.9608 15.6028 16.8567 15.9846C16.6311 16.8871 16.1972 17.4512 15.555 17.6768C14.9128 17.8851 14.3575 17.6508 13.8889 16.9739C13.5591 16.54 13.4029 16.1321 13.4202 15.7503C13.4376 15.3511 13.6198 14.9259 13.967 14.4746C14.2446 14.0928 14.774 13.199 15.555 11.7932C16.3534 10.37 16.8654 9.50219 17.091 9.18979C17.6117 8.49555 18.115 7.54098 18.601 6.32607C19.1043 5.09381 19.3559 4.19131 19.3559 3.61856C19.3559 3.21938 19.6163 2.75077 20.137 2.21274ZM21.9854 8.25257C21.9854 7.74925 21.8986 7.52363 21.725 7.5757C21.5167 7.62776 21.2564 7.97488 20.944 8.61704C20.458 9.57162 20.2758 10.1704 20.3973 10.4134C20.5361 10.639 20.9961 10.5522 21.7771 10.153C22.1242 9.97948 22.3411 9.77121 22.4279 9.52823C22.5321 9.28524 22.4713 9.09433 22.2457 8.95548C22.0721 8.8687 21.9854 8.6344 21.9854 8.25257Z" fill="#30302F"/>
<path d="M10.2813 0.963276C11.7565 0.702938 13.0582 0.633515 14.1863 0.755006C15.3145 0.859141 16.1649 1.16287 16.7376 1.66619C17.3277 2.16951 17.4839 2.76828 17.2063 3.46252C17.0848 3.80963 16.8158 4.05261 16.3992 4.19146C15.9827 4.31295 15.5661 4.27824 15.1496 4.08733C14.4554 3.77492 13.388 3.72285 11.9474 3.93112C10.5069 4.13939 9.26596 4.52122 8.22461 5.07661C7.84278 5.28488 7.13987 5.87498 6.11588 6.8469C5.10924 7.80148 4.46707 8.49571 4.18938 8.92961C3.96375 9.25937 3.79887 9.84079 3.69474 10.6739L3.53854 11.8975L4.52782 12.5223C5.18734 12.9388 5.74273 13.1471 6.19398 13.1471C6.6973 13.1471 7.3655 12.9214 8.19858 12.4702C9.04901 12.0189 9.73457 11.5156 10.2552 10.9602C10.7586 10.4222 11.1577 10.1358 11.4528 10.1011C11.7478 10.0491 12.0342 10.2313 12.3119 10.6478C12.5028 10.9429 12.5983 11.1685 12.5983 11.3247C12.5983 11.4809 12.4941 11.7933 12.2859 12.2619C11.9735 12.9909 11.6177 13.5463 11.2185 13.9281C10.8193 14.2926 10.1511 14.7091 9.21389 15.1777C8.08576 15.7331 7.11384 16.0108 6.29811 16.0108C5.53446 16.0108 4.71005 15.8112 3.82491 15.412C2.95711 15.0128 2.23685 14.5182 1.66411 13.9281C0.93516 13.1644 0.431841 12.2706 0.154147 11.2466C-0.10619 10.2226 -0.0367669 9.45028 0.362417 8.92961C0.588043 8.63456 0.709534 8.35686 0.72689 8.09652C0.72689 7.8709 1.00458 7.37626 1.55997 6.6126C2.13271 5.83159 2.65339 5.23281 3.122 4.81627C3.69474 4.27824 4.44104 3.67946 5.3609 3.01994C6.29811 2.36042 6.98367 1.9352 7.41756 1.74429C7.97295 1.50131 8.92752 1.24097 10.2813 0.963276Z" fill="#30302F"/>
</svg>
